<?xml version="1.0" encoding="iso-8859-1"?>
<!-- Generator: Adobe Illustrator 19.0.0, SVG Export Plug-In . SVG Version: 6.00 Build 0)  -->
<svg version="1.1" id="Layer_1" xmlns="http://www.w3.org/2000/svg" xmlns:xlink="http://www.w3.org/1999/xlink" x="0px" y="0px"
	 viewBox="0 0 512 512" style="enable-background:new 0 0 512 512;" xml:space="preserve">
<path style="fill:#86D7D9;" d="M142.58,210.591V109.798H87.02V210.59C41.793,222.805,8.513,264.113,8.513,313.202
	c0,58.701,47.586,106.287,106.286,106.287s106.286-47.587,106.286-106.287C221.086,264.113,187.806,222.805,142.58,210.591z"/>
<path style="fill:#00C279;" d="M47.771,270.318c-7.954,12.388-12.589,27.1-12.589,42.883c0,43.901,35.716,79.618,79.618,79.618
	s79.618-35.717,79.618-79.618c0-15.783-4.636-30.495-12.589-42.883L47.771,270.318L47.771,270.318z"/>
<g>
	<path style="fill:#664B33;" d="M125.331,29.516h-20.405c-9.526,0-17.249,7.723-17.249,17.249v49.981h54.903v-49.98
		C142.58,37.239,134.857,29.516,125.331,29.516z"/>
	<path style="fill:#664B33;" d="M386.669,29.516h20.405c9.526,0,17.249,7.723,17.249,17.249v49.981h-54.903v-49.98
		C369.419,37.239,377.143,29.516,386.669,29.516z"/>
</g>
<path style="opacity:0.3;fill:#20272E;enable-background:new    ;" d="M142.58,210.591v-89.474
	c9.566-0.35,17.219-8.193,17.219-17.844s-7.653-17.495-17.219-17.843V46.768c0-9.527-7.722-17.249-17.249-17.249h-9.667v389.961
	c58.301-0.465,105.421-47.865,105.421-106.276C221.086,264.113,187.806,222.805,142.58,210.591z"/>
<path style="fill:#664B33;" d="M267.206,67.525h-21.713c-10.137,0-18.354,8.218-18.354,18.355v52.455h58.42V85.88
	C285.56,75.743,277.343,67.525,267.206,67.525z"/>
<path style="fill:#76BDBF;" d="M141.922,85.395H87.677c-9.873,0-17.877,8.004-17.877,17.877l0,0c0,9.873,8.004,17.877,17.877,17.877
	h54.245c9.873,0,17.877-8.004,17.877-17.877l0,0C159.799,93.4,151.796,85.395,141.922,85.395z"/>
<path style="fill:#86D7D9;" d="M369.419,210.591V109.798h55.561V210.59c45.227,12.215,78.506,53.523,78.506,102.611
	c0,58.701-47.586,106.287-106.286,106.287s-106.286-47.587-106.286-106.287C290.914,264.113,324.194,222.805,369.419,210.591z"/>
<path style="fill:#76BDBF;" d="M370.078,85.395h54.245c9.873,0,17.877,8.004,17.877,17.877l0,0c0,9.873-8.004,17.877-17.877,17.877
	h-54.245c-9.873,0-17.877-8.004-17.877-17.877l0,0C352.201,93.4,360.204,85.395,370.078,85.395z"/>
<path style="fill:#00969B;" d="M464.228,270.318c7.954,12.388,12.589,27.1,12.589,42.883c0,43.901-35.716,79.618-79.618,79.618
	s-79.618-35.717-79.618-79.618c0-15.783,4.636-30.495,12.589-42.883L464.228,270.318L464.228,270.318z"/>
<path style="fill:#9EFDFF;" d="M285.56,260.202V153.678h-59.121v106.523c-48.125,12.997-83.536,56.953-83.536,109.185
	c0,62.461,50.634,113.097,113.097,113.097s113.097-50.636,113.097-113.097C369.097,317.154,333.685,273.199,285.56,260.202z"/>
<path style="fill:#86D7D9;" d="M284.861,126.985h-57.721c-10.506,0-19.022,8.517-19.022,19.022l0,0
	c0,10.506,8.516,19.022,19.022,19.022h57.721c10.506,0,19.022-8.517,19.022-19.022l0,0
	C303.882,135.501,295.366,126.985,284.861,126.985z"/>
<path style="fill:#FF738D;" d="M184.676,323.756c-8.463,13.182-13.394,28.837-13.394,45.631c0,46.714,38.004,84.719,84.719,84.719
	s84.719-38.005,84.719-84.719c0-16.794-4.932-32.449-13.394-45.631H184.676z"/>
<g>
	<circle style="fill:#FFFFFF;" cx="210.917" cy="369.302" r="19.632"/>
	<circle style="fill:#FFFFFF;" cx="231.724" cy="410.098" r="14.127"/>
	<circle style="fill:#FFFFFF;" cx="80.026" cy="308.686" r="19.632"/>
	<circle style="fill:#FFFFFF;" cx="100.833" cy="349.483" r="14.127"/>
	<circle style="fill:#FFFFFF;" cx="431.971" cy="308.686" r="19.632"/>
	<circle style="fill:#FFFFFF;" cx="411.165" cy="349.483" r="14.127"/>
</g>
<g>
	<path style="opacity:0.3;fill:#20272E;enable-background:new    ;" d="M424.98,210.591v-89.474
		c9.566-0.35,17.219-8.193,17.219-17.844c0-9.873-8.004-17.877-17.877-17.877V46.767c0-9.527-7.722-17.249-17.249-17.249H396.87
		v389.966c0.11,0,0.219,0.005,0.329,0.005c58.701,0,106.286-47.586,106.286-106.286C503.487,264.113,470.207,222.805,424.98,210.591
		z"/>
	<path style="opacity:0.3;fill:#20272E;enable-background:new    ;" d="M285.56,260.202v-95.209
		c10.179-0.371,18.322-8.718,18.322-18.987c0-10.269-8.143-18.615-18.322-18.987V85.88c0-10.137-8.217-18.355-18.354-18.355H256.35
		v414.955c62.3-0.19,112.746-50.748,112.746-113.092C369.097,317.154,333.685,273.199,285.56,260.202z"/>
	<path style="fill:#20272E;" d="M327.323,315.243H184.676c-2.899,0-5.598,1.476-7.164,3.914
		c-9.646,15.024-14.744,32.394-14.744,50.23c0,51.409,41.824,93.232,93.232,93.232s93.232-41.824,93.232-93.232
		c0-17.835-5.098-35.205-14.744-50.23C332.922,316.718,330.222,315.243,327.323,315.243z M256,445.592
		c-42.02,0-76.205-34.185-76.205-76.205c0-13.044,3.338-25.783,9.695-37.117h133.022c6.356,11.334,9.695,24.074,9.695,37.117
		C332.205,411.407,298.019,445.592,256,445.592z"/>
	<path style="fill:#20272E;" d="M433.494,204.267v-76.251c10.044-3.735,17.219-13.416,17.219-24.745
		c0-11.573-7.491-21.423-17.877-24.973V46.767c0-14.206-11.557-25.763-25.763-25.763h-20.404c-14.205,0-25.763,11.558-25.763,25.763
		v31.761c-10.044,3.735-17.219,13.416-17.219,24.745s7.175,21.01,17.219,24.745v76.252c-26.404,8.788-48.751,26.949-62.827,51.007
		c-1.325-0.488-2.657-0.964-4.006-1.408v-81.914c10.664-3.799,18.322-13.993,18.322-25.946s-7.658-22.146-18.322-25.944V85.88
		c0-14.816-12.053-26.868-26.867-26.868h-21.712c-14.814,0-26.867,12.053-26.867,26.868v33.945
		c-11.028,3.595-19.022,13.97-19.022,26.183c0,11.953,7.658,22.146,18.322,25.946v81.914c-1.349,0.444-2.68,0.919-4.006,1.408
		c-14.077-24.058-36.423-42.218-62.827-51.007v-76.252c10.044-3.735,17.219-13.416,17.219-24.745s-7.175-21.01-17.219-24.745V46.765
		c0-14.206-11.557-25.763-25.763-25.763h-20.405c-14.206,0-25.763,11.558-25.763,25.763v31.533
		c-10.385,3.551-17.877,13.4-17.877,24.973c0,11.327,7.175,21.01,17.219,24.745v76.251C31.967,219.749,0,263.637,0,313.201
		c0,63.301,51.499,114.801,114.8,114.801c11.003,0,21.814-1.571,32.253-4.626c19.923,40.04,61.272,67.622,108.947,67.622
		s89.024-27.581,108.947-67.622c10.44,3.055,21.251,4.626,32.253,4.626c63.301,0,114.8-51.499,114.8-114.801
		C512,263.637,480.033,219.749,433.494,204.267z M377.933,46.767c0-4.817,3.918-8.736,8.736-8.736h20.405
		c4.817,0,8.736,3.918,8.736,8.736v30.115h-37.876V46.767H377.933z M360.714,103.272c0-5.164,4.2-9.364,9.364-9.364h54.245
		c5.163,0,9.364,4.2,9.364,9.364s-4.2,9.364-9.364,9.364h-54.245C364.915,112.636,360.714,108.436,360.714,103.272z M235.653,85.88
		c0-5.426,4.414-9.842,9.84-9.842h21.712c5.426,0,9.84,4.416,9.84,9.842v32.592h-41.393V85.88H235.653z M216.63,146.006
		c0-5.794,4.714-10.509,10.509-10.509h57.721c5.795,0,10.509,4.714,10.509,10.509s-4.714,10.51-10.509,10.51h-57.721
		C221.345,156.516,216.63,151.802,216.63,146.006z M96.19,46.767c0-4.817,3.918-8.736,8.736-8.736h20.405
		c4.816,0,8.736,3.918,8.736,8.736v30.115H96.19V46.767z M78.314,103.272c0-5.164,4.2-9.364,9.364-9.364h54.245
		c5.163,0,9.364,4.2,9.364,9.364s-4.2,9.364-9.364,9.364H87.677C82.514,112.636,78.314,108.436,78.314,103.272z M114.8,410.975
		c-53.912,0-97.773-43.86-97.773-97.774c0-44.093,29.695-82.908,72.212-94.391c3.714-1.003,6.293-4.372,6.293-8.218v-80.928h38.534
		v80.928c0,3.847,2.58,7.216,6.293,8.218c24.23,6.545,44.949,22.204,57.939,43.53c-2.855,1.542-5.635,3.191-8.339,4.945
		c-0.321-0.523-0.638-1.051-0.968-1.566c-1.566-2.437-4.265-3.912-7.163-3.912H47.771c-2.899,0-5.598,1.475-7.165,3.914
		c-9.117,14.202-13.937,30.62-13.937,47.481c0,48.597,39.535,88.132,88.13,88.132c7.832,0,15.541-1.053,23.032-3.094
		c0.187,0.772,2.535,9.36,2.674,9.322C132.168,409.828,123.555,410.975,114.8,410.975z M134.693,360.845
		c-0.011,0.159-0.022,0.319-0.032,0.478c-0.41,6.217-0.335,12.455,0.196,18.661c0.023,0.263,0.045,0.527,0.07,0.789
		c0.018,0.199,0.032,0.398,0.051,0.598c-6.542,1.95-13.304,2.934-20.179,2.934c-39.207,0-71.103-31.898-71.103-71.105
		c0-12.071,3.064-23.86,8.899-34.368c0,0,122.259,0,122.24,0.017c-0.052,0.047-0.102,0.095-0.154,0.142
		c-0.403,0.361-0.798,0.73-1.195,1.097c-0.167,0.154-0.337,0.306-0.503,0.462c-11.15,10.443-20.353,22.857-26.91,36.667
		C139.579,330.888,135.743,345.751,134.693,360.845z M360.337,374.052c-1.854,36.432-22.832,70.78-56.176,88.154
		c-14.827,7.726-31.445,11.766-48.161,11.766c-44.588,0-85.583-29.573-99.385-72.041c-6.185-19.034-6.832-39.853-1.721-59.21
		c8.014-30.348,29.964-56.147,58.634-68.907c0.018-0.008,0.035-0.019,0.053-0.027c4.83-2.143,9.859-3.955,15.077-5.365
		c3.714-1.002,6.293-4.372,6.293-8.218v-86.659h42.094v86.659c0,3.847,2.58,7.216,6.293,8.218c5.218,1.41,10.247,3.221,15.077,5.365
		c0.018,0.008,0.035,0.019,0.053,0.027c28.346,12.617,50.151,37.996,58.366,67.921C359.773,352.434,360.883,363.333,360.337,374.052
		z M339.017,280.549c-0.166-0.156-0.336-0.306-0.503-0.462c-0.397-0.367-0.792-0.734-1.195-1.097
		c-0.052-0.047-0.102-0.095-0.173-0.159h122.259c5.836,10.509,8.899,22.298,8.899,34.368c0,39.207-31.897,71.105-71.104,71.105
		c-6.875,0-13.636-0.984-20.178-2.934c0.019-0.199,0.033-0.398,0.051-0.598c2.255-24.026-2.707-48.58-14.309-69.751
		C356.537,299.659,348.467,289.404,339.017,280.549z M397.199,410.975c-8.755,0-17.369-1.146-25.706-3.414
		c0.247-0.747,2.772-9.296,2.674-9.322c7.492,2.04,15.199,3.094,23.032,3.094c48.596,0,88.131-39.535,88.131-88.132
		c0-16.861-4.82-33.28-13.938-47.481c-1.565-2.439-4.265-3.914-7.164-3.914H330.171c-2.898,0-5.597,1.475-7.163,3.912
		c-0.33,0.515-0.647,1.042-0.968,1.566c-2.704-1.754-5.485-3.403-8.352-4.951c13.003-21.319,33.721-36.978,57.952-43.523
		c3.714-1.002,6.293-4.372,6.293-8.218v-80.928h38.534v80.928c0,3.847,2.579,7.215,6.293,8.218
		c42.517,11.483,72.212,50.3,72.212,94.391C494.973,367.114,451.112,410.975,397.199,410.975z"/>
</g>
<g>
</g>
<g>
</g>
<g>
</g>
<g>
</g>
<g>
</g>
<g>
</g>
<g>
</g>
<g>
</g>
<g>
</g>
<g>
</g>
<g>
</g>
<g>
</g>
<g>
</g>
<g>
</g>
<g>
</g>
</svg>
